{
  "accessors": [
    {
      "bufferView": 2,
      "componentType": 5126,
      "count": 15820,
      "max": [
        305.2597961425781,
        554.008056640625,
        883.4183349609375
      ],
      "min": [
        -350.3943176269531,
        -221.642822265625,
        -96.63319396972656
      ],
      "type": "VEC3"
    },
    {
      "bufferView": 2,
      "byteOffset": 189840,
      "componentType": 5126,
      "count": 15820,
      "max": [
        1.0,
        1.0,
        1.0
      ],
      "min": [
        -1.0,
        -1.0,
        -1.0
      ],
      "type": "VEC3"
    },
    {
      "bufferView": 1,
      "componentType": 5126,
      "count": 15820,
      "max": [
        0.9906408190727234,
        0.9990000128746033
      ],
      "min": [
        0.0010000000474974513,
        0.0010000000474974513
      ],
      "type": "VEC2"
    },
    {
      "bufferView": 0,
      "componentType": 5125,
      "count": 26697,
      "type": "SCALAR"
    },
    {
      "bufferView": 2,
      "byteOffset": 379680,
      "componentType": 5126,
      "count": 7572,
      "max": [
        511.21533203125,
        489.4596252441406,
        687.1295166015625
      ],
      "min": [
        -427.3934326171875,
        -457.08734130859375,
        -116.1531982421875
      ],
      "type": "VEC3"
    },
    {
      "bufferView": 2,
      "byteOffset": 470544,
      "componentType": 5126,
      "count": 7572,
      "max": [
        1.0,
        1.0,
        1.0
      ],
      "min": [
        -1.0,
        -1.0,
        -1.0
      ],
      "type": "VEC3"
    },
    {
      "bufferView": 1,
      "byteOffset": 126560,
      "componentType": 5126,
      "count": 7572,
      "max": [
        0.9951621294021606,
        0.9994999766349792
      ],
      "min": [
        0.0005000000237487257,
        0.0005000000237487257
      ],
      "type": "VEC2"
    },
    {
      "bufferView": 0,
      "byteOffset": 106788,
      "componentType": 5125,
      "count": 19602,
      "type": "SCALAR"
    },
    {
      "bufferView": 2,
      "byteOffset": 561408,
      "componentType": 5126,
      "count": 29272,
      "max": [
        638.3475341796875,
        667.6118774414063,
        1642.1258544921875
      ],
      "min": [
        -790.8944091796875,
        -682.3778686523438,
        615.9723510742188
      ],
      "type": "VEC3"
    },
    {
      "bufferView": 2,
      "byteOffset": 912672,
      "componentType": 5126,
      "count": 29272,
      "max": [
        0.9998188614845276,
        1.0,
        1.0
      ],
      "min": [
        -0.9997330904006958,
        -1.0,
        -0.9999995827674866
      ],
      "type": "VEC3"
    },
    {
      "bufferView": 3,
      "componentType": 5126,
      "count": 29272,
      "max": [
        0.9999973773956299,
        1.0,
        0.9999353289604187,
        1.0
      ],
      "min": [
        -0.9999940991401672,
        -1.0,
        -0.9999511241912842,
        1.0
      ],
      "type": "VEC4"
    },
    {
      "bufferView": 1,
      "byteOffset": 187136,
      "componentType": 5126,
      "count": 29272,
      "max": [
        0.9990000128746033,
        0.9987642765045166
      ],
      "min": [
        0.0010000000474974513,
        0.0010000000474974513
      ],
      "type": "VEC2"
    },
    {
      "bufferView": 1,
      "byteOffset": 421312,
      "componentType": 5126,
      "count": 29272,
      "max": [
        0.9990000128746033,
        0.9987642765045166
      ],
      "min": [
        0.0010000000474974513,
        0.0010000000474974513
      ],
      "type": "VEC2"
    },
    {
      "bufferView": 1,
      "byteOffset": 655488,
      "componentType": 5126,
      "count": 29272,
      "max": [
        0.9990000128746033,
        0.9987642765045166
      ],
      "min": [
        0.0010000000474974513,
        0.0010000000474974513
      ],
      "type": "VEC2"
    },
    {
      "bufferView": 0,
      "byteOffset": 185196,
      "componentType": 5125,
      "count": 56352,
      "type": "SCALAR"
    }
  ],
  "asset": {
    "extras": {
      "author": "7midaart (https://sketchfab.com/7midaart)",
      "license": "CC-BY-4.0 (http://creativecommons.org/licenses/by/4.0/)",
      "source": "https://sketchfab.com/3d-models/antenna-7ca3e74f53f042ce89c90f0387065b03",
      "title": "antenna"
    },
    "generator": "Sketchfab-16.28.0",
    "version": "2.0"
  },
  "bufferViews": [
    {
      "buffer": 0,
      "byteLength": 410604,
      "name": "floatBufferViews",
      "target": 34963
    },
    {
      "buffer": 0,
      "byteLength": 889664,
      "byteOffset": 410604,
      "byteStride": 8,
      "name": "floatBufferViews",
      "target": 34962
    },
    {
      "buffer": 0,
      "byteLength": 1263936,
      "byteOffset": 1300268,
      "byteStride": 12,
      "name": "floatBufferViews",
      "target": 34962
    },
    {
      "buffer": 0,
      "byteLength": 468352,
      "byteOffset": 2564204,
      "byteStride": 16,
      "name": "floatBufferViews",
      "target": 34962
    }
  ],
  "buffers": [
    {
      "byteLength": 3032556,
      "uri": "models/scene.bin"
    }
  ],
  "images": [
    {
      "uri": "models/textures/AM227_009.001_baseColor.png"
    },
    {
      "uri": "models/textures/AM227_009.001_normal.png"
    }
  ],
  "materials": [
    {
      "doubleSided": true,
      "name": "Material.002",
      "pbrMetallicRoughness": {
        "baseColorFactor": [
          0.0,
          0.0,
          0.0,
          1.0
        ],
        "metallicFactor": 0.0,
        "roughnessFactor": 0.9740587045726317
      }
    },
    {
      "doubleSided": true,
      "name": "Material.001",
      "pbrMetallicRoughness": {
        "baseColorFactor": [
          0.04825934533322086,
          0.04825934533322086,
          0.04825934533322086,
          1.0
        ],
        "metallicFactor": 0.41295363947775837,
        "roughnessFactor": 0.9688455356898886
      }
    },
    {
      "doubleSided": true,
      "name": "AM227_009.001",
      "normalTexture": {
        "index": 1
      },
      "pbrMetallicRoughness": {
        "baseColorTexture": {
          "index": 0
        },
        "metallicFactor": 0.0,
        "roughnessFactor": 0.9405396442498639
      }
    }
  ],
  "meshes": [
    {
      "name": "AM227_009_Material.002_0",
      "primitives": [
        {
          "attributes": {
            "NORMAL": 1,
            "POSITION": 0,
            "TEXCOORD_0": 2
          },
          "indices": 3,
          "material": 0,
          "mode": 4
        }
      ]
    },
    {
      "name": "AM227_009.001_Material.001_0",
      "primitives": [
        {
          "attributes": {
            "NORMAL": 5,
            "POSITION": 4,
            "TEXCOORD_0": 6
          },
          "indices": 7,
          "material": 1,
          "mode": 4
        }
      ]
    },
    {
      "name": "AM227_009.002_AM227_009.001_0",
      "primitives": [
        {
          "attributes": {
            "NORMAL": 9,
            "POSITION": 8,
            "TANGENT": 10,
            "TEXCOORD_0": 11,
            "TEXCOORD_1": 12,
            "TEXCOORD_2": 13
          },
          "indices": 14,
          "material": 2,
          "mode": 4
        }
      ]
    }
  ],
  "nodes": [
    {
      "children": [
        1
      ],
      "matrix": [
        1.0,
        0.0,
        0.0,
        0.0,
        0.0,
        2.220446049250313e-16,
        -1.0,
        0.0,
        0.0,
        1.0,
        2.220446049250313e-16,
        0.0,
        0.0,
        0.0,
        0.0,
        1.0
      ],
      "name": "Sketchfab_model"
    },
    {
      "children": [
        2
      ],
      "matrix": [
        0.009999999776482582,
        0.0,
        0.0,
        0.0,
        0.0,
        0.0,
        0.009999999776482582,
        0.0,
        0.0,
        -0.009999999776482582,
        0.0,
        0.0,
        0.0,
        0.0,
        0.0,
        1.0
      ],
      "name": "1e8809babbc147fdbafc518bf4f76248.fbx"
    },
    {
      "children": [
        3,
        5,
        7
      ],
      "name": "RootNode"
    },
    {
      "children": [
        4
      ],
      "matrix": [
        7.549789959870878e-08,
        1.1102230246251565e-16,
        0.9999999999999971,
        0.0,
        0.9999999999999962,
        -4.371139006309477e-08,
        -7.549789954319763e-08,
        0.0,
        4.371139006309477e-08,
        0.9999999999999991,
        -3.552713678800501e-15,
        0.0,
        0.0,
        102.01823425292969,
        0.0,
        1.0
      ],
      "name": "AM227_009"
    },
    {
      "mesh": 0,
      "name": "AM227_009_Material.002_0"
    },
    {
      "children": [
        6
      ],
      "matrix": [
        7.549789959870878e-08,
        1.1102230246251565e-16,
        0.9999999999999971,
        0.0,
        0.9999999999999962,
        -4.371139006309477e-08,
        -7.549789954319763e-08,
        0.0,
        4.371139006309477e-08,
        0.9999999999999991,
        -3.552713678800501e-15,
        0.0,
        0.0,
        102.01823425292969,
        0.0,
        1.0
      ],
      "name": "AM227_009.001"
    },
    {
      "mesh": 1,
      "name": "AM227_009.001_Material.001_0"
    },
    {
      "children": [
        8
      ],
      "matrix": [
        7.549789959870878e-08,
        1.1102230246251565e-16,
        0.9999999999999971,
        0.0,
        0.9999999999999962,
        -4.371139006309477e-08,
        -7.549789954319763e-08,
        0.0,
        4.371139006309477e-08,
        0.9999999999999991,
        -3.552713678800501e-15,
        0.0,
        0.0,
        102.01823425292969,
        0.0,
        1.0
      ],
      "name": "AM227_009.002"
    },
    {
      "mesh": 2,
      "name": "AM227_009.002_AM227_009.001_0"
    }
  ],
  "samplers": [
    {
      "magFilter": 9729,
      "minFilter": 9987,
      "wrapS": 10497,
      "wrapT": 10497
    }
  ],
  "scene": 0,
  "scenes": [
    {
      "name": "Sketchfab_Scene",
      "nodes": [
        0
      ]
    }
  ],
  "textures": [
    {
      "sampler": 0,
      "source": 0
    },
    {
      "sampler": 0,
      "source": 1
    }
  ]
}
